<?xml version="1.0" standalone="no"?>
<!DOCTYPE svg PUBLIC "-//W3C//DTD SVG 20010904//EN"
 "http://www.w3.org/TR/2001/REC-SVG-20010904/DTD/svg10.dtd">
<svg version="1.0" xmlns="http://www.w3.org/2000/svg"
 width="612.000000pt" height="612.000000pt" viewBox="0 0 612.000000 612.000000"
 preserveAspectRatio="xMidYMid meet">
<metadata>
Created by potrace 1.14, written by Peter Selinger 2001-2017
</metadata>
<g transform="translate(0.000000,612.000000) scale(0.100000,-0.100000)"
fill="#000000" stroke="none">
<path d="M2011 5245 c-35 -8 -87 -22 -115 -31 -58 -19 -222 -102 -237 -120 -8
-9 0 -29 29 -71 185 -274 282 -582 254 -806 l-9 -68 47 -39 c70 -59 185 -127
270 -159 127 -49 210 -61 403 -59 140 1 183 -2 232 -16 91 -27 154 -63 210
-121 64 -65 96 -119 125 -210 22 -66 23 -84 21 -340 -3 -362 20 -567 85 -770
66 -204 167 -346 294 -410 l51 -26 45 21 c26 13 56 39 73 63 73 106 183 195
296 241 74 30 197 56 265 56 27 0 50 3 50 6 0 4 -21 37 -46 75 -25 38 -61 106
-79 152 -18 45 -39 83 -47 85 -7 1 -91 -16 -186 -38 -95 -22 -182 -40 -193
-40 -28 0 -69 44 -69 73 0 53 24 64 221 109 l187 42 -10 30 c-19 59 -60 166
-63 166 -2 0 -86 -20 -186 -45 -100 -25 -188 -45 -196 -45 -23 0 -63 47 -63
73 0 59 32 71 377 152 21 5 21 5 -12 97 -21 59 -39 94 -49 96 -9 2 -81 -13
-162 -32 -80 -20 -156 -36 -168 -36 -31 0 -66 36 -66 68 0 57 19 68 190 108
88 21 160 42 160 48 0 14 -61 189 -69 198 -3 4 -91 -18 -196 -47 -104 -30
-196 -55 -203 -55 -24 0 -62 48 -62 79 0 46 33 63 222 116 95 27 176 50 180
52 5 2 -57 198 -66 209 -1 0 -48 -5 -106 -12 -145 -17 -254 -17 -379 2 -167
25 -236 52 -425 168 -190 116 -289 219 -367 381 -61 127 -80 215 -83 392 -3
146 -4 154 -29 186 -14 19 -41 38 -63 45 -62 20 -210 24 -283 7z"/>
<path d="M1435 4931 c-172 -148 -385 -376 -484 -519 -21 -30 -22 -36 -11 -86
30 -146 206 -402 419 -610 l50 -50 53 37 c363 254 435 637 203 1075 -47 88
-134 222 -144 222 -3 0 -42 -31 -86 -69z"/>
<path d="M3340 4517 c-36 -12 -90 -39 -120 -59 -55 -37 -180 -154 -180 -168 0
-12 97 -50 169 -66 89 -20 298 -28 394 -16 43 6 80 12 83 14 6 6 -74 228 -92
256 -42 64 -138 79 -254 39z"/>
<path d="M729 4257 c-91 -38 -174 -94 -232 -156 -63 -68 -92 -124 -108 -203
-30 -151 81 -373 301 -602 189 -196 396 -344 669 -477 289 -142 442 -241 650
-419 181 -155 278 -275 395 -495 139 -259 299 -449 521 -617 325 -246 744
-386 1257 -420 385 -26 735 38 1029 188 104 53 276 170 266 181 -3 3 -28 0
-54 -6 -62 -14 -218 -36 -363 -53 -74 -8 -240 -13 -465 -12 -653 1 -874 45
-1146 230 -130 88 -254 192 -371 311 -164 165 -239 264 -343 453 -82 150 -177
271 -355 453 -208 214 -419 403 -705 632 -474 378 -763 710 -855 979 -9 28
-21 51 -26 53 -5 1 -34 -8 -65 -20z m-27 -345 c27 -17 537 -552 596 -625 36
-45 43 -97 17 -134 -20 -29 -75 -46 -107 -34 -13 5 -141 132 -284 283 -390
412 -364 381 -364 423 0 46 13 71 48 89 36 20 61 20 94 -2z"/>
<path d="M1855 3922 c-65 -117 -173 -240 -287 -325 l-48 -36 78 -64 c42 -35
133 -109 202 -164 307 -246 585 -501 767 -702 103 -113 229 -278 271 -353 26
-46 35 -52 167 -118 122 -60 373 -156 383 -146 2 2 -17 30 -41 63 -181 238
-262 619 -254 1203 2 202 2 206 -24 260 -48 103 -123 167 -231 196 -40 11 -87
13 -193 8 -266 -12 -461 43 -677 191 l-77 53 -36 -66z"/>
<path d="M4313 2230 c-172 -19 -299 -90 -401 -226 -92 -122 -176 -159 -352
-158 -148 1 -269 29 -478 113 l-54 21 22 -27 c48 -63 242 -251 335 -326 337
-271 500 -312 1230 -312 325 1 391 3 538 23 352 47 516 100 573 187 24 37 3
85 -71 160 -67 67 -116 94 -460 253 -197 91 -379 175 -487 225 -135 63 -250
82 -395 67z"/>
</g>
</svg>
